G75*
%MOMM*%
%OFA0B0*%
%FSLAX33Y33*%
%IPPOS*%
%LPD*%
%AMOC8*
5,1,8,0,0,1.08239X$1,22.5*
%
%ADD10OC8,2.794*%
%ADD11C,2.794*%
%ADD12C,2.388*%
%ADD13C,3.912*%
%ADD14C,3.210*%
%ADD15C,2.286*%
%ADD16C,1.930*%
%ADD17OC8,2.540*%
%ADD18R,2.110X2.110*%
%ADD19C,2.134*%
%ADD20OC8,2.286*%
%ADD21C,2.110*%
%ADD22C,2.326*%
D10*
X14170Y01731D03*
X14170Y06114D03*
X15869Y11670D03*
X11486Y11670D03*
X08919Y17430D03*
X09650Y21926D03*
X09650Y26309D03*
X03250Y25574D03*
X03250Y21191D03*
X03839Y17430D03*
X20176Y18500D03*
X21310Y16314D03*
X24559Y18500D03*
X29070Y17370D03*
X29060Y21800D03*
X34140Y21800D03*
X34150Y17370D03*
X35091Y14950D03*
X39474Y14950D03*
X40076Y12500D03*
X44459Y12500D03*
X49526Y14000D03*
X53909Y14000D03*
X55811Y11170D03*
X55150Y08440D03*
X60194Y11170D03*
X55150Y16874D03*
X55150Y21954D03*
X55811Y24686D03*
X51309Y26867D03*
X46926Y26867D03*
X55150Y30389D03*
X55150Y35469D03*
X56311Y38201D03*
X54009Y40633D03*
X49626Y40633D03*
X55150Y43903D03*
X55150Y48983D03*
X56711Y51717D03*
X54374Y54000D03*
X55150Y57417D03*
X49991Y54000D03*
X55150Y62497D03*
X56111Y65232D03*
X53609Y67567D03*
X55150Y70931D03*
X49226Y67567D03*
X60494Y65232D03*
X55150Y76011D03*
X56611Y78748D03*
X53609Y79933D03*
X49226Y79933D03*
X55150Y84446D03*
X55150Y89526D03*
X55811Y92263D03*
X52509Y93600D03*
X48126Y93600D03*
X55150Y97960D03*
X61906Y94521D03*
X60194Y92263D03*
X66289Y94521D03*
X55150Y103040D03*
X37437Y92800D03*
X33500Y94641D03*
X32890Y92800D03*
X27900Y90424D03*
X30941Y88200D03*
X27900Y86041D03*
X35324Y88200D03*
X33500Y99024D03*
X21560Y101000D03*
X14480Y101000D03*
X05400Y101000D03*
X03620Y93630D03*
X03620Y86010D03*
X22070Y73440D03*
X25570Y75890D03*
X29690Y73440D03*
X33190Y75890D03*
X33110Y62700D03*
X25490Y62700D03*
X12970Y58410D03*
X09530Y62910D03*
X01910Y62910D03*
X12970Y50790D03*
X23641Y44100D03*
X28024Y44100D03*
X60194Y24686D03*
X60694Y38201D03*
X61094Y51717D03*
X60994Y78748D03*
X102470Y94040D03*
X102470Y101660D03*
X107150Y76113D03*
X109880Y73190D03*
X109880Y68643D03*
X117440Y59330D03*
X125060Y59330D03*
X125440Y55970D03*
X133060Y55970D03*
X131647Y62650D03*
X107900Y13810D03*
X105700Y11310D03*
X107900Y06190D03*
X105700Y03690D03*
X55150Y03360D03*
X25550Y05140D03*
X21310Y11931D03*
X25550Y12760D03*
D11*
X107150Y81447D03*
X126313Y62650D03*
D12*
X120230Y63071D02*
X120230Y64849D01*
X117690Y64849D02*
X117690Y63071D01*
X115150Y63071D02*
X115150Y64849D01*
D13*
X117690Y78946D03*
D14*
X07871Y02787D02*
X05271Y02787D01*
X05271Y11160D02*
X07871Y11160D01*
X30291Y11081D02*
X32891Y11081D01*
X41764Y07341D02*
X41764Y04741D01*
X50137Y04741D02*
X50137Y07341D01*
X50137Y18234D02*
X50137Y20834D01*
X41764Y20834D02*
X41764Y18234D01*
X41764Y31727D02*
X41764Y34327D01*
X50137Y34327D02*
X50137Y31727D01*
X50137Y45220D02*
X50137Y47820D01*
X41764Y47820D02*
X41764Y45220D01*
X41764Y58712D02*
X41764Y61312D01*
X50137Y61312D02*
X50137Y58712D01*
X50137Y72205D02*
X50137Y74805D01*
X41764Y74805D02*
X41764Y72205D01*
X41764Y85698D02*
X41764Y88298D01*
X50137Y88298D02*
X50137Y85698D01*
X50137Y99191D02*
X50137Y101791D01*
X41764Y101791D02*
X41764Y99191D01*
X32891Y02708D02*
X30291Y02708D01*
D15*
X38764Y05192D02*
X38764Y06868D01*
X32418Y14081D02*
X30742Y14081D01*
X38764Y18685D02*
X38764Y20361D01*
X38764Y32178D02*
X38764Y33854D01*
X38764Y45670D02*
X38764Y47347D01*
X38764Y59163D02*
X38764Y60840D01*
X38764Y72656D02*
X38764Y74332D01*
X38764Y86149D02*
X38764Y87825D01*
X38764Y99642D02*
X38764Y101318D01*
X06210Y89898D02*
X06210Y88222D01*
X06210Y84818D02*
X06210Y83142D01*
X06210Y79738D02*
X06210Y78062D01*
X04110Y44008D02*
X04110Y42332D01*
X04110Y38928D02*
X04110Y37252D01*
X04110Y33848D02*
X04110Y32172D01*
X05722Y14160D02*
X07398Y14160D01*
D16*
X33340Y30910D02*
X34660Y30910D01*
X34660Y33450D02*
X33340Y33450D01*
X33340Y35990D02*
X34660Y35990D01*
X34660Y38530D02*
X33340Y38530D01*
X33340Y41070D02*
X34660Y41070D01*
X34660Y43610D02*
X33340Y43610D01*
X33340Y46150D02*
X34660Y46150D01*
X34660Y48690D02*
X33340Y48690D01*
X26890Y48390D02*
X26890Y47070D01*
X24350Y47070D02*
X24350Y48390D01*
X21810Y48390D02*
X21810Y47070D01*
X19270Y47070D02*
X19270Y48390D01*
X16730Y48390D02*
X16730Y47070D01*
X14190Y47070D02*
X14190Y48390D01*
X11650Y48390D02*
X11650Y47070D01*
X09110Y47070D02*
X09110Y48390D01*
X09110Y92870D02*
X09110Y94190D01*
X11650Y94190D02*
X11650Y92870D01*
X14190Y92870D02*
X14190Y94190D01*
X16730Y94190D02*
X16730Y92870D01*
X19270Y92870D02*
X19270Y94190D01*
X21810Y94190D02*
X21810Y92870D01*
X24350Y92870D02*
X24350Y94190D01*
X26890Y94190D02*
X26890Y92870D01*
X103190Y73160D02*
X104510Y73160D01*
X104510Y70620D02*
X103190Y70620D01*
X103190Y68080D02*
X104510Y68080D01*
X104510Y65540D02*
X103190Y65540D01*
X103190Y63000D02*
X104510Y63000D01*
X104510Y60460D02*
X103190Y60460D01*
X103190Y57920D02*
X104510Y57920D01*
X104510Y55380D02*
X103190Y55380D01*
X103170Y50380D02*
X104490Y50380D01*
X104490Y47840D02*
X103170Y47840D01*
X103170Y45300D02*
X104490Y45300D01*
X104490Y42760D02*
X103170Y42760D01*
X103170Y40220D02*
X104490Y40220D01*
X104490Y37680D02*
X103170Y37680D01*
X103170Y35140D02*
X104490Y35140D01*
X104490Y32600D02*
X103170Y32600D01*
X109110Y47070D02*
X109110Y48390D01*
X111650Y48390D02*
X111650Y47070D01*
X114190Y47070D02*
X114190Y48390D01*
X116730Y48390D02*
X116730Y47070D01*
X119270Y47070D02*
X119270Y48390D01*
X121810Y48390D02*
X121810Y47070D01*
X124350Y47070D02*
X124350Y48390D01*
X126890Y48390D02*
X126890Y47070D01*
X133340Y46150D02*
X134660Y46150D01*
X134660Y48690D02*
X133340Y48690D01*
X133340Y43610D02*
X134660Y43610D01*
X134660Y41070D02*
X133340Y41070D01*
X133340Y38530D02*
X134660Y38530D01*
X134660Y35990D02*
X133340Y35990D01*
X133340Y33450D02*
X134660Y33450D01*
X134660Y30910D02*
X133340Y30910D01*
X151490Y37590D02*
X152810Y37590D01*
X152810Y40130D02*
X151490Y40130D01*
X151490Y42670D02*
X152810Y42670D01*
X152810Y45210D02*
X151490Y45210D01*
X151490Y47750D02*
X152810Y47750D01*
X152810Y50290D02*
X151490Y50290D01*
X151490Y52830D02*
X152810Y52830D01*
X152810Y55370D02*
X151490Y55370D01*
X151540Y59410D02*
X152860Y59410D01*
X152860Y61950D02*
X151540Y61950D01*
X151540Y64490D02*
X152860Y64490D01*
X152860Y67030D02*
X151540Y67030D01*
X151540Y69570D02*
X152860Y69570D01*
X152860Y72110D02*
X151540Y72110D01*
X151540Y74650D02*
X152860Y74650D01*
X152860Y77190D02*
X151540Y77190D01*
X126890Y92870D02*
X126890Y94190D01*
X124350Y94190D02*
X124350Y92870D01*
X121810Y92870D02*
X121810Y94190D01*
X119270Y94190D02*
X119270Y92870D01*
X116730Y92870D02*
X116730Y94190D01*
X114190Y94190D02*
X114190Y92870D01*
X111650Y92870D02*
X111650Y94190D01*
X109110Y94190D02*
X109110Y92870D01*
X119110Y07760D02*
X119110Y06440D01*
X121650Y06440D02*
X121650Y07760D01*
X124190Y07760D02*
X124190Y06440D01*
X126730Y06440D02*
X126730Y07760D01*
X129270Y07760D02*
X129270Y06440D01*
X131810Y06440D02*
X131810Y07760D01*
X134350Y07760D02*
X134350Y06440D01*
X136890Y06440D02*
X136890Y07760D01*
D17*
X16100Y14320D03*
X11230Y14350D03*
X13700Y18155D03*
X12620Y20760D03*
X16455Y23160D03*
X12650Y25630D03*
D18*
X25700Y27100D03*
X25700Y29100D03*
X25700Y31100D03*
X30700Y31100D03*
X30700Y29100D03*
X30700Y27100D03*
X21780Y09090D03*
X19780Y09090D03*
X17780Y09090D03*
X17780Y04090D03*
X19780Y04090D03*
X21780Y04090D03*
X60050Y04000D03*
X60050Y06000D03*
X60050Y08000D03*
X65050Y08000D03*
X65050Y06000D03*
X65050Y04000D03*
X65050Y17486D03*
X65050Y19486D03*
X65050Y21486D03*
X60050Y21486D03*
X60050Y19486D03*
X60050Y17486D03*
X60050Y30971D03*
X60050Y32971D03*
X60050Y34971D03*
X65050Y34971D03*
X65050Y32971D03*
X65050Y30971D03*
X65050Y44457D03*
X65050Y46457D03*
X65050Y48457D03*
X60050Y48457D03*
X60050Y46457D03*
X60050Y44457D03*
X60050Y57943D03*
X60050Y59943D03*
X60050Y61943D03*
X65050Y61943D03*
X65050Y59943D03*
X65050Y57943D03*
X65050Y71429D03*
X65050Y73429D03*
X65050Y75429D03*
X60050Y75429D03*
X60050Y73429D03*
X60050Y71429D03*
X60050Y84914D03*
X60050Y86914D03*
X60050Y88914D03*
X65050Y88914D03*
X65050Y86914D03*
X65050Y84914D03*
X65050Y98400D03*
X65050Y100400D03*
X65050Y102400D03*
X60050Y102400D03*
X60050Y100400D03*
X60050Y98400D03*
X36400Y82800D03*
X36400Y80800D03*
X36400Y78800D03*
X31400Y78800D03*
X31400Y80800D03*
X31400Y82800D03*
X32100Y70155D03*
X32100Y68155D03*
X32100Y66155D03*
X27100Y66155D03*
X27100Y68155D03*
X27100Y70155D03*
X20813Y70155D03*
X20813Y68155D03*
X20813Y66155D03*
X15813Y66155D03*
X15813Y68155D03*
X15813Y70155D03*
X09527Y70155D03*
X09527Y68155D03*
X09527Y66155D03*
X04527Y66155D03*
X04527Y68155D03*
X04527Y70155D03*
X04520Y57905D03*
X04520Y55905D03*
X04520Y53905D03*
X09520Y53905D03*
X09520Y55905D03*
X09520Y57905D03*
X15810Y57905D03*
X15810Y55905D03*
X15810Y53905D03*
X20810Y53905D03*
X20810Y55905D03*
X20810Y57905D03*
X27100Y57905D03*
X27100Y55905D03*
X27100Y53905D03*
X32100Y53905D03*
X32100Y55905D03*
X32100Y57905D03*
D19*
X29400Y92838D02*
X29400Y94362D01*
X25300Y100338D02*
X25300Y101862D01*
X32838Y101300D02*
X34362Y101300D01*
X129400Y94262D02*
X129400Y92738D01*
X132580Y25272D02*
X132580Y23748D01*
X135120Y23748D02*
X135120Y25272D01*
X137660Y25272D02*
X137660Y23748D01*
X140200Y23748D02*
X140200Y25272D01*
X142740Y25272D02*
X142740Y23748D01*
X145280Y23748D02*
X145280Y25272D01*
X147820Y25272D02*
X147820Y23748D01*
X147820Y17652D02*
X147820Y16128D01*
X145280Y16128D02*
X145280Y17652D01*
X142740Y17652D02*
X142740Y16128D01*
X140200Y16128D02*
X140200Y17652D01*
X137660Y17652D02*
X137660Y16128D01*
X135120Y16128D02*
X135120Y17652D01*
X132580Y17652D02*
X132580Y16128D01*
X126120Y16028D02*
X126120Y17552D01*
X123580Y17552D02*
X123580Y16028D01*
X121040Y16028D02*
X121040Y17552D01*
X118500Y17552D02*
X118500Y16028D01*
X115960Y16028D02*
X115960Y17552D01*
X113420Y17552D02*
X113420Y16028D01*
X110880Y16028D02*
X110880Y17552D01*
X110880Y23648D02*
X110880Y25172D01*
X113420Y25172D02*
X113420Y23648D01*
X115960Y23648D02*
X115960Y25172D01*
X118500Y25172D02*
X118500Y23648D01*
X121040Y23648D02*
X121040Y25172D01*
X123580Y25172D02*
X123580Y23648D01*
X126120Y23648D02*
X126120Y25172D01*
X116600Y07862D02*
X116600Y06338D01*
X114100Y06238D02*
X114100Y07762D01*
D20*
X106200Y84941D03*
X107978Y87735D03*
X104422Y87862D03*
D21*
X108820Y97330D02*
X108820Y98830D01*
X108820Y101370D02*
X108820Y102870D01*
X111360Y102870D02*
X111360Y101370D01*
X113900Y101370D02*
X113900Y102870D01*
X116440Y102870D02*
X116440Y101370D01*
X116440Y98830D02*
X116440Y97330D01*
X113900Y97330D02*
X113900Y98830D01*
X111360Y98830D02*
X111360Y97330D01*
X118980Y97330D02*
X118980Y98830D01*
X118980Y101370D02*
X118980Y102870D01*
D22*
X106700Y51900D03*
X106700Y44700D03*
X102500Y14000D03*
X117600Y14000D03*
X118000Y12100D03*
X140800Y12000D03*
X41400Y53000D03*
X36000Y49700D03*
X21100Y29100D03*
X16500Y25900D03*
X06000Y35420D03*
X04100Y48500D03*
M02*
