G75*
%MOMM*%
%OFA0B0*%
%FSLAX33Y33*%
%IPPOS*%
%LPD*%
%AMOC8*
5,1,8,0,0,1.08239X$1,22.5*
%
%ADD10C,0.000*%
%ADD11C,0.076*%
D10*
X00000Y00000D02*
X00000Y107600D01*
X69200Y107600D01*
X116039Y78946D02*
X116041Y79027D01*
X116047Y79108D01*
X116057Y79188D01*
X116071Y79268D01*
X116088Y79347D01*
X116110Y79425D01*
X116136Y79502D01*
X116165Y79578D01*
X116198Y79652D01*
X116234Y79724D01*
X116274Y79795D01*
X116317Y79863D01*
X116364Y79929D01*
X116414Y79993D01*
X116467Y80055D01*
X116523Y80113D01*
X116581Y80169D01*
X116643Y80222D01*
X116707Y80272D01*
X116773Y80319D01*
X116841Y80362D01*
X116912Y80402D01*
X116984Y80438D01*
X117058Y80471D01*
X117134Y80500D01*
X117211Y80526D01*
X117289Y80548D01*
X117368Y80565D01*
X117448Y80579D01*
X117528Y80589D01*
X117609Y80595D01*
X117690Y80597D01*
X117771Y80595D01*
X117852Y80589D01*
X117932Y80579D01*
X118012Y80565D01*
X118091Y80548D01*
X118169Y80526D01*
X118246Y80500D01*
X118322Y80471D01*
X118396Y80438D01*
X118468Y80402D01*
X118539Y80362D01*
X118607Y80319D01*
X118673Y80272D01*
X118737Y80222D01*
X118799Y80169D01*
X118857Y80113D01*
X118913Y80055D01*
X118966Y79993D01*
X119016Y79929D01*
X119063Y79863D01*
X119106Y79795D01*
X119146Y79724D01*
X119182Y79652D01*
X119215Y79578D01*
X119244Y79502D01*
X119270Y79425D01*
X119292Y79347D01*
X119309Y79268D01*
X119323Y79188D01*
X119333Y79108D01*
X119339Y79027D01*
X119341Y78946D01*
X119339Y78865D01*
X119333Y78784D01*
X119323Y78704D01*
X119309Y78624D01*
X119292Y78545D01*
X119270Y78467D01*
X119244Y78390D01*
X119215Y78314D01*
X119182Y78240D01*
X119146Y78168D01*
X119106Y78097D01*
X119063Y78029D01*
X119016Y77963D01*
X118966Y77899D01*
X118913Y77837D01*
X118857Y77779D01*
X118799Y77723D01*
X118737Y77670D01*
X118673Y77620D01*
X118607Y77573D01*
X118539Y77530D01*
X118468Y77490D01*
X118396Y77454D01*
X118322Y77421D01*
X118246Y77392D01*
X118169Y77366D01*
X118091Y77344D01*
X118012Y77327D01*
X117932Y77313D01*
X117852Y77303D01*
X117771Y77297D01*
X117690Y77295D01*
X117609Y77297D01*
X117528Y77303D01*
X117448Y77313D01*
X117368Y77327D01*
X117289Y77344D01*
X117211Y77366D01*
X117134Y77392D01*
X117058Y77421D01*
X116984Y77454D01*
X116912Y77490D01*
X116841Y77530D01*
X116773Y77573D01*
X116707Y77620D01*
X116643Y77670D01*
X116581Y77723D01*
X116523Y77779D01*
X116467Y77837D01*
X116414Y77899D01*
X116364Y77963D01*
X116317Y78029D01*
X116274Y78097D01*
X116234Y78168D01*
X116198Y78240D01*
X116165Y78314D01*
X116136Y78390D01*
X116110Y78467D01*
X116088Y78545D01*
X116071Y78624D01*
X116057Y78704D01*
X116047Y78784D01*
X116041Y78865D01*
X116039Y78946D01*
X69200Y00000D02*
X00000Y00000D01*
D11*
X69200Y00000D02*
X69200Y107600D01*
X100100Y105900D02*
X155600Y105900D01*
X155600Y00000D01*
X100100Y00000D01*
X100100Y105900D01*
M02*
